<svg id="logo" xmlns="http://www.w3.org/2000/svg" viewBox="0 0 160.8 67.3">
  <title>logo</title>
  <g>
    <path d="M130.2,140.2c0,.4-.5.3-.7.7a18.9,18.9,0,0,1-2.1,5.3c-.8,1.1-2.4,7.4-2.8,8.5s0,1.1,0,1.6a8.4,8.4,0,0,0,4.7-.2c.4,0,.7-.3,1.1-.1h.7a36.6,36.6,0,0,1,7.9-1.1,16.3,16.3,0,0,1,4.8.9,2.5,2.5,0,0,1,1.5,2.3c0,.9,0,1-1.1,1.1a1.8,1.8,0,0,0-2.3-1.2,1,1,0,0,1-.9-.2,5.2,5.2,0,0,0-3.5-.3,12.7,12.7,0,0,1-3.7,1c-.3,0-1.6,0-1.9.3s-1.7.3-2.4,1.1h-.6l-1,.4h.1c-.7,0-2.9.8-3.2,1.6s-.8-.2-1,0l-2.4.9-3.8,1.6c-.5.2-.9.8-1.3,1.2s-1.1.2-1.6-.5a6.1,6.1,0,0,1-.7-1.4c-.4-1.1-.1-2.8-.7-3.9s0-.4-.1-.7a32.7,32.7,0,0,0,6.9-1.5c.2-1,.5-1.9.7-2.8s1.8-7.8,2.7-8.7.1-.2.1-.3,3.8-9.4,4.4-9.9a.6.6,0,0,0,.3-.6c-.3-.9,2.4-5.9,2.7-6.5s.9-1.7,1.3-2.6.6-1,.4-1.6.1-.6.3-.9l1.5-2.9,3.6-7c.4-.8,1.1-1.5,1.6-2.4l1.4-2.5a2.1,2.1,0,0,1,1.7.2l3.3,1.9a1.7,1.7,0,0,1,.6.6c-.1.8-.2,1.5-1,1.9l-.5.7c-1.3,2.3-2.7,4.5-4.1,6.8s-1.6,2.2-2.5,3.4a13.7,13.7,0,0,0-1.3,2,.7.7,0,0,1-.1.5,2.8,2.8,0,0,0-.9,1.6c0,.6-.6,1-1,1.5s-.6,1.3-1,1.9a5.9,5.9,0,0,0-.6,1.6,3.4,3.4,0,0,1-.9,1.8,8,8,0,0,0-1.5,2.9c-.1.4-.2.7-.5.8A1,1,0,0,0,130.2,140.2Zm52.6-30.3c0,.4-.8,1-1.1,1.5-1.8,2.5-3.8,4.9-5,7.8-.2.4-.7.7-1,1.1l-.4.5c1.1,1.8-.4,2.8-1.1,3.8a32.5,32.5,0,0,0-3,5.1c-.3.6-.1,1.4-.4,2a2.5,2.5,0,0,1,1.9.1c1.3.9.4,3.1.4,3.1l-1.2-.3h-1.1c0,.2-.1.3-.3.4-.9,1.6.2,3.3,0,5s-1.7,3.2-.8,4.6.7,1.1.6,1.4c-.5,1.9,1.2,2.6,1.7,4.2s-6.8,3.2-7.3,1-1.6-5.9-.9-11.3c0-1.6.5-2.8,1.2-5h-1.9a25.2,25.2,0,0,0-4.7.6h-1.7l-.8,1.2c-.6.2-2.4,2.1-2,2.5s-.6.8-.7.9a7.5,7.5,0,0,0-1.4,1.7,12,12,0,0,0-1.9,2.9c-.1.6-1.1,1-1.4,1.4s-2.3,3.7-2.9,3.7a40,40,0,0,0-3,3.7c-1.4,1.8-2.8,3.7-5.3,4.1s-3.1-.3-4.4-2.2c3.1,1.1,4.3-1.1,5.8-2.7s2.5-3.2,3.9-4.9l2.1-2.5c.3-.4.7-1.1.5-1.6s2-2.1,2-2.1a2.1,2.1,0,0,0,.4-1.3c.1-.3,1.1-.5,1.1-.5l2.2-2.9h-.1c-1.5.3-2.8.9-4.2,1.2s-3.1,1.2-4.7,1.7-2.3.9-3.5.4-1.1-.5-1.2-1.1l-.3-2.9c0-.7.2-1.1.8-1.2a.5.5,0,0,1,.8.1c.3.7.8.6,1.3.4l5.6-1.5,5-1.1.5-.2a2.1,2.1,0,0,1,1.3-.3,3.2,3.2,0,0,0,1.7-.2h.7c1.3-1.9,3.4-3.5,3.9-5.3.1-.2.3-.1.4-.5s2.7-3.2,4.1-4.7,3.6-4.3,5.5-6.3a6.3,6.3,0,0,1,1-1.2l.9-.8c1.3-1.4,2.7-2.8,4.1-4.1s.5-1.6,1.7-1.9a3.8,3.8,0,0,1,3,.3Zm-16.8,22c.3-.8.4-1.4.5-1.6a10.6,10.6,0,0,1,.6-1.9,40.1,40.1,0,0,1,2.7-6.8,7.6,7.6,0,0,0,.4-3.4c-1.6,1.6-5.2,5-5.2,5.8s-.5.4-.6.5-2.1,4-2.9,4-.3.6-.5.9a14.7,14.7,0,0,0-1.6,2.9c.1.4.7,0,1,0s.4-.3.5-.4.2.4.3.5h.4l.7-.5H166ZM208.7,113a9.6,9.6,0,0,1-1.4,3.8c-.9,1.6-1.8,2.9-2.7,4.3a19.7,19.7,0,0,1-3.1,3.9,7.3,7.3,0,0,1-1.6,1.4,1.5,1.5,0,0,1-1.8,0,7.7,7.7,0,0,1-1.2-1.3l.6-.4a3.9,3.9,0,0,0,1-.8c1.6-2.4,3.6-4.5,4.9-7.3a5.3,5.3,0,0,0,.8-2.2,2.7,2.7,0,0,0-.6-2.6,1.9,1.9,0,0,0-.6-.7,1.7,1.7,0,0,0-1.6-.5,10.2,10.2,0,0,0-2.8,1.3,26.7,26.7,0,0,0-6.4,5.7,31.7,31.7,0,0,0-3.4,3.9c-.7.8-1.2,1.8-1.8,2.6s-2.5,4.1-3.5,6.4-1.1,2.3-1.7,3.5-.9,2.3-1.3,3.1l-.3.4c-.5,1.9-.9,3.8-1.5,5.7a16.8,16.8,0,0,0-.5,4.5,3.5,3.5,0,0,0,.3,1.3,7.5,7.5,0,0,0,.7,1.2,2.8,2.8,0,0,0,2.9.1,21.6,21.6,0,0,0,3.4-1.7l2.2-1.1a1.3,1.3,0,0,0,.9-.7,1.7,1.7,0,0,1,1.1-.9,6.7,6.7,0,0,0,3.3-2.5c.7-.7,1.6-1.1,2.2-2.1l.2-.2c.9,0,1.1-.8,1.7-1.3a8.1,8.1,0,0,0,1.4-1.2l.7-.6a1.5,1.5,0,0,1,.5-.6l2.3-2,1.8-1.7.7-.6c.2.2.3.3.1.6a9.3,9.3,0,0,1-2.3,3,11.8,11.8,0,0,0-2.5,2.5,14.2,14.2,0,0,1-1.3,1.2,4.6,4.6,0,0,0-1.3,1.9,7.3,7.3,0,0,1-1.7,1.9l-.7.5-3.1,2.8a15,15,0,0,0-2.3,2,12.7,12.7,0,0,1-2.2,1.3l-1.6.9a12.6,12.6,0,0,1-3.3,1.6h-1.2c-2.5-.2-5.8-1.6-7-3.9a2.1,2.1,0,0,1-.3-.7,2.9,2.9,0,0,1-.3-2.7,1.8,1.8,0,0,0,.3-1.2c.1-1.2.2-2.2.3-3.3a1.7,1.7,0,0,1,.4-1.5c.1-.2,0-.6.1-.9l.4-1c.8-2,1.5-4.2,2.4-6.2s1.3-3.1,2.1-4.6a2.4,2.4,0,0,1,.6-.8c.1-.1.3-.2.3-.4s1.4-2.7,2.3-4,1.8-2.5,2.5-3.7a29.4,29.4,0,0,1,3.6-4.2l2.1-2.3a12.4,12.4,0,0,1,1.8-1.4l3.2-1.7a3,3,0,0,1,1.4-.5,29.8,29.8,0,0,1,7.3.1,23.6,23.6,0,0,1,2.8,1.2C208.2,110.7,209,111.6,208.7,113Zm6.4-3.5a22.5,22.5,0,0,1,2.1,1.2c.7.5.8,1,.2,1.8a40.5,40.5,0,0,0-4.4,6.9,57.2,57.2,0,0,0-3.6,7.5c-.7,1.6-1.5,3.2-2.1,4.7s-2.4,5.8-3.5,8.8a8.7,8.7,0,0,0-.7,1.7c-.1.2,0,.5-.1.8s.3-.3.5-.3,1.2-2,1.8-3,.4-.7.7-.9l6.6-9.5c.9-1.1,1.7-2.3,2.6-3.2a7.8,7.8,0,0,0,2.2-2.6c1.9-1.5,3.5-3.4,5.4-5.1s2.6-2,3.9-3.2l.5-.3c1.1-1.9,3.1-2.6,4.6-4l2.5-2.2a2.3,2.3,0,0,1,3-.5l3.5,1.7a.9.9,0,0,1,.6.9c-.1.5-.2.8-.7,1s-.9.3-1.4.3a7.8,7.8,0,0,0-4.2.9,4.5,4.5,0,0,1-1.6.3,3,3,0,0,0-2.2.8c-2.7,2.2-5.4,4.3-8,6.6a45.9,45.9,0,0,0-6.6,7.2l.6.4c.4.5.6.9.4,1.4a8.2,8.2,0,0,0,.2,4.9c.2,1,.4,2,.7,3v.7a63.8,63.8,0,0,0,7.8,10.7,3,3,0,0,0,2.5,1.7l1.6.2c-.2.4-.2.7-.4.9a4.4,4.4,0,0,1-4.2.7,6.2,6.2,0,0,1-3.4-2c-1.2-1.6-3.5-3.6-4.6-5.4a39.2,39.2,0,0,1-3.4-6.2,23,23,0,0,1-1.7-3.9,4.6,4.6,0,0,1-.3-.9c-.4.3-.7.4-.8.6l-1.3,1.9c-2.6,4.2-5.4,8.4-7.7,12.9-.6,1.1-1,2-1.7,3.2s-.7.2-1.1,0a7.1,7.1,0,0,0-2.2-.6c-.4,0-.6-.2-.6-.7a11.5,11.5,0,0,1-.1-1.9,10.1,10.1,0,0,0,.3-1.7,2.8,2.8,0,0,1,.5-1.6,1.2,1.2,0,0,0,.2-1,2,2,0,0,1,.3-1.1,3.8,3.8,0,0,0,.6-1.3,12.9,12.9,0,0,1,.4-1.9c.6-2,1.7-3.9,2.1-6l.6-1.4a8.3,8.3,0,0,0,.7-1.8,1.6,1.6,0,0,1,.7-1.5c.2-.6-.3-1,.1-1.4l.5-1.2c.2-.3.4-.4.4-.6a2.5,2.5,0,0,1,.6-2.2,18.9,18.9,0,0,0,.9-2.1c.3-.8.7-1.5,1-2.4s2-4.5,3.1-6.7a38.2,38.2,0,0,0,1.7-3.6,4.4,4.4,0,0,1,.5-.9A3.4,3.4,0,0,1,215.1,109.5Z" transform="translate(-81.6 -99.4)" stroke="#000" stroke-miterlimit="10" stroke-width="2"/>
    <path d="M133.4,112.6a10.8,10.8,0,0,1-.5,4.1c-.9,2.2-1.6,4.3-3.1,6l-.5.4c-.3,1.4-1.3,2.1-2.2,3.1s-.4.5-.5,1-.6.6-.9,1.1-.5.6-1.1.8-.8.7-.9,1.1a3.5,3.5,0,0,1-1.3,1.4,29.7,29.7,0,0,0-4.6,3.3,7.4,7.4,0,0,1-1.2.9l1.1.9a6.4,6.4,0,0,1,2.6,5.5,8,8,0,0,1-1.2,4.3c-1,1.4-1.8,2.9-2.9,4.2a20,20,0,0,1-1.6,1.4,33.9,33.9,0,0,1-10,5.6,41.1,41.1,0,0,1-8.4,2,11.2,11.2,0,0,1-7-1.3l-.5-.3c-2.4-.6-3.5-2.2-4.7-4.5a9.9,9.9,0,0,1,2.6-4.2,10.4,10.4,0,0,1,2.6-2.1,3.1,3.1,0,0,0,1.6-2.6c.3-.5.2-1.1.5-1.7a4.8,4.8,0,0,1,.8-1.8,2.3,2.3,0,0,0,.9-2,.9.9,0,0,1,.3-.9,5.7,5.7,0,0,0,2.4-4c.8-.6.8-1.3,1.4-2.1a.8.8,0,0,1,.1-.4c.2-.2.1-.6.4-.8a1.3,1.3,0,0,0,.5-.6c.2-.3.1-.6-.4-1a9.1,9.1,0,0,1,.9-1.7l6.2-10.1a25,25,0,0,0,2.1-3.5l.8-.9c1.3-1.8,2.2-2,4-.8l2.2,1.3a1.5,1.5,0,0,1,.7,2.3l-.3.7-5.7,7.1a7.3,7.3,0,0,1-1,1.3,7.6,7.6,0,0,0-2.4,3,14.3,14.3,0,0,1-2,3,2.8,2.8,0,0,0-.5,1.1,6.6,6.6,0,0,0,5.6,1.1,23.6,23.6,0,0,0,7.2-3.3c.7-.5,1.6-.6,2-1.5s.4-.2.6-.3.6-.1.6-.3,1.1-1.2,1.4-1.8a16.6,16.6,0,0,1,3.2-3.8,25.4,25.4,0,0,0,4.5-8,12.2,12.2,0,0,0,.6-6.3,5.2,5.2,0,0,0-3-3.9c-1-.5-1.9-.7-2.9-1.1a24.9,24.9,0,0,0-9.8-.4l-4.3.6a44.3,44.3,0,0,0-7.9,3,34.2,34.2,0,0,0-10.7,8.6,15.1,15.1,0,0,0-3.7,6.8,6.5,6.5,0,0,0,1.2,5.6c.4.6,1,1,1,1.9s-.7.3-1,0a6.6,6.6,0,0,1-3.8-2.4,2.4,2.4,0,0,1-.6-1.1,9.8,9.8,0,0,1,.1-4.8,22.7,22.7,0,0,1,5.3-8.3c3.6-3.7,7.9-6.3,12.4-8.7a31.6,31.6,0,0,1,6.1-2.2h.5c2.9-1.5,6-1.2,9.2-1.1a30.8,30.8,0,0,1,6.1.4,16,16,0,0,1,6.8,3,8.6,8.6,0,0,1,2.6,2.4,7.6,7.6,0,0,1,1.5,5C133.5,111.8,133.4,112.1,133.4,112.6ZM115.8,139a2.9,2.9,0,0,0-1.2-1.5,3,3,0,0,0-1.6-.3c-1.5-.1-3.1.6-4.4-.5h-.8a5.2,5.2,0,0,1-4.4-1.7,3.5,3.5,0,0,0-1.6-1c-2.3,2.6-3,5.9-4.7,8.9a16.3,16.3,0,0,0,3.4-.5,1.2,1.2,0,0,1,1-.1,9.3,9.3,0,0,0,3.7-.2,15.5,15.5,0,0,1,2.2.1,2.7,2.7,0,0,1,1.6.8h-1.2a20.4,20.4,0,0,0-10.1,2.4c-2.8,1.4-2.1.8-2.9,3.9a2.5,2.5,0,0,0,.3,2.1l.3.4c.2.3-.2,1-.5,1a4.2,4.2,0,0,1-3.9-.7c-.3-.2-.4-.6-1-.6a5.8,5.8,0,0,0-1.6,3,4.7,4.7,0,0,0,2.6.9,21.7,21.7,0,0,0,5.3-.5,45.6,45.6,0,0,0,7.1-2.4c2-1.1,4.3-1.8,6.1-3.6h.3a18.5,18.5,0,0,0,5.3-5.5l.6-1.5A3.7,3.7,0,0,0,115.8,139Zm-20.1-4.7Zm1.9-3.3h0Z" transform="translate(-81.6 -99.4)" stroke="#000" stroke-miterlimit="10" stroke-width="2"/>
  </g>
</svg>
